<svg xmlns="http://www.w3.org/2000/svg" xmlns:xlink="http://www.w3.org/1999/xlink" version="1.1" x="0px" y="0px" viewBox="0 0 100 125" enable-background="new 0 0 100 100" xml:space="preserve"><g><path d="M5,5v90h90V5H5z M53.425,26.389v-6.454h6.007v6.454H53.425z M59.432,26.813v6.454h-6.007v-6.454H59.432z M70.285,25.855   c2.186,0,3.951,1.77,3.951,3.952c0,2.184-1.768,3.951-3.951,3.951c-2.182,0-3.949-1.768-3.949-3.951   C66.336,27.625,68.104,25.855,70.285,25.855z M66.336,16.517c0-2.184,1.768-3.954,3.949-3.954c2.186,0,3.951,1.771,3.951,3.954   s-1.768,3.95-3.951,3.95C68.104,20.467,66.336,18.699,66.336,16.517z M83.578,25.855c2.181,0,3.951,1.77,3.951,3.952   c0,2.184-1.771,3.951-3.951,3.951c-2.182,0-3.953-1.768-3.953-3.951C79.625,27.625,81.396,25.855,83.578,25.855z M79.625,16.517   c0-2.184,1.771-3.954,3.953-3.954c2.181,0,3.951,1.771,3.951,3.954s-1.771,3.95-3.951,3.95   C81.396,20.467,79.625,18.699,79.625,16.517z M53.425,40.145v-6.453h6.007v6.453H53.425z M59.854,46.574v-6.005h6.453v6.005H59.854   z M66.73,46.574v-6.005h6.455v6.005H66.73z M73.609,46.574v-6.005h6.453v6.005H73.609z M80.488,46.574v-6.005h6.455v6.005H80.488z    M70.285,74.145c-2.182,0-3.949-1.768-3.949-3.951s1.768-3.95,3.949-3.95c2.186,0,3.951,1.768,3.951,3.95   C74.236,72.377,72.471,74.145,70.285,74.145z M74.236,83.484c0,2.184-1.768,3.951-3.951,3.951c-2.182,0-3.949-1.769-3.949-3.951   c0-2.184,1.768-3.95,3.949-3.95C72.471,79.534,74.236,81.302,74.236,83.484z M80.063,53.43v6.002h-6.453V53.43H80.063z    M73.186,53.43v6.002H66.73V53.43H73.186z M83.578,74.145c-2.182,0-3.953-1.768-3.953-3.951s1.771-3.95,3.953-3.95   c2.181,0,3.951,1.768,3.951,3.95C87.529,72.377,85.759,74.145,83.578,74.145z M87.529,83.484c0,2.184-1.771,3.951-3.951,3.951   c-2.182,0-3.953-1.769-3.953-3.951c0-2.184,1.771-3.95,3.953-3.95C85.759,79.534,87.529,81.302,87.529,83.484z M66.307,53.43v6.002   h-6.453V53.43H66.307z M93.063,53.43v6.002h-5.694V53.43H93.063z M87.367,53.006v-6.008h5.695v6.008H87.367z M93.063,46.574h-5.694   v-6.005h5.694V46.574z M53.425,6.936h6.007v5.698h-6.007V6.936z M46.996,6.936h6.006v5.698h-6.006V6.936z M40.567,6.936h6.005   v5.698h-6.005V6.936z M40.567,13.059h6.005v6.451h-6.005V13.059z M40.567,19.935h6.005v6.454h-6.005V19.935z M40.567,26.813h6.005   v6.454h-6.005V26.813z M40.567,33.691h6.005v6.453h-6.005V33.691z M40.143,53.43v6.002H33.69V53.43H40.143z M33.266,53.43v6.002   h-6.455V53.43H33.266z M26.387,53.43v6.002h-6.453V53.43H26.387z M19.51,53.43v6.002h-6.456V53.43H19.51z M19.935,46.574v-6.005   h6.453v6.005H19.935z M26.811,46.574v-6.005h6.455v6.005H26.811z M16.612,25.855c2.18,0,3.953,1.768,3.953,3.951   c0,2.182-1.772,3.951-3.953,3.951c-2.183,0-3.953-1.77-3.953-3.951C12.659,27.623,14.429,25.855,16.612,25.855z M12.659,16.516   c0-2.184,1.77-3.953,3.953-3.953c2.18,0,3.953,1.77,3.953,3.953c0,2.182-1.772,3.95-3.953,3.95   C14.429,20.466,12.659,18.697,12.659,16.516z M29.905,25.855c2.181,0,3.951,1.768,3.951,3.951c0,2.182-1.77,3.951-3.951,3.951   c-2.186,0-3.955-1.77-3.955-3.951C25.95,27.623,27.719,25.855,29.905,25.855z M25.95,16.516c0-2.184,1.769-3.953,3.955-3.953   c2.181,0,3.951,1.77,3.951,3.953c0,2.182-1.77,3.95-3.951,3.95C27.719,20.466,25.95,18.697,25.95,16.516z M33.69,46.574v-6.005   h6.453v6.005H33.69z M6.937,46.574v-6.005h5.693v6.005H6.937z M12.63,46.998v6.008H6.937v-6.008H12.63z M6.937,53.43h5.693v6.002   H6.937V53.43z M46.572,73.611v6.453h-6.005v-6.453H46.572z M40.567,73.188v-6.453h6.005v6.453H40.567z M29.905,74.145   c-2.186,0-3.955-1.771-3.955-3.953c0-2.182,1.769-3.95,3.955-3.95c2.181,0,3.951,1.769,3.951,3.95   C33.856,72.374,32.085,74.145,29.905,74.145z M33.855,83.482c0,2.184-1.77,3.953-3.951,3.953c-2.186,0-3.955-1.771-3.955-3.953   s1.769-3.951,3.955-3.951C32.085,79.531,33.855,81.301,33.855,83.482z M16.612,74.145c-2.183,0-3.953-1.771-3.953-3.953   c0-2.182,1.77-3.95,3.953-3.95c2.18,0,3.953,1.769,3.953,3.95C20.565,72.374,18.792,74.145,16.612,74.145z M20.565,83.482   c0,2.184-1.772,3.953-3.953,3.953c-2.183,0-3.953-1.771-3.953-3.953s1.77-3.951,3.953-3.951   C18.792,79.531,20.565,81.301,20.565,83.482z M46.572,59.855v6.455h-6.005v-6.455H46.572z M46.572,93.064h-6.005v-5.696h6.005   V93.064z M53.002,93.064h-6.006v-5.696h6.006V93.064z M59.432,93.064h-6.007v-5.696h6.007V93.064z M59.432,86.943h-6.007V80.49   h6.007V86.943z M59.432,80.064h-6.007v-6.453h6.007V80.064z M59.432,73.188h-6.007v-6.453h6.007V73.188z M59.432,66.313h-6.007   v-6.457h6.007V66.313z M58.658,59.432l-8.565-8.565l-8.563,8.565h-0.963v-0.769L49.229,50l-8.662-8.665v-0.766h0.966l8.56,8.563   l8.565-8.563h0.771v0.957L50.959,50l8.471,8.473v0.959H58.658z"/></g><text x="0" y="115" fill="#000000" font-size="5px" font-weight="bold" font-family="'Helvetica Neue', Helvetica, Arial-Unicode, Arial, Sans-serif">Created by Juan Pablo Bravo</text><text x="0" y="120" fill="#000000" font-size="5px" font-weight="bold" font-family="'Helvetica Neue', Helvetica, Arial-Unicode, Arial, Sans-serif">from the Noun Project</text></svg>